<svg width="256" height="256" viewBox="0 0 256 256" fill="none" xmlns="http://www.w3.org/2000/svg">
  <style>
    #upcloud {
      fill: #0c001a;
    }
    @media (prefers-color-scheme: dark) {
      #upcloud {
        fill: #ffffff;
      }
    }
  </style>
  <g id="upcloud">
    <path d="M120.294 136.556V174.444L120.306 174.419H204.075C210.035 174.419 214.869 169.577 214.869 163.606C214.869 157.636 210.046 152.794 204.075 152.794H137.656V137.619H204.075C218.407 137.619 230.025 149.262 230.025 163.619C230.024 177.975 218.406 189.613 204.075 189.613H105.15V136.556H120.294Z" />
    <path d="M149.825 64C164.156 64 175.774 75.6376 175.775 89.9937C175.775 104.351 164.157 115.994 149.825 115.994H57.95C51.98 115.994 47.1564 120.836 47.1562 126.806C47.1562 132.776 51.9907 137.618 57.95 137.619H86.7562V152.794H57.95C43.619 152.793 32 141.15 32 126.794C32.0011 112.438 43.6196 100.801 57.95 100.8H149.825C155.795 100.8 160.617 95.9568 160.619 89.9875C160.619 84.017 155.785 79.1687 149.825 79.1687H104.106V64H149.825Z" />
  </g>
</svg>
